<mxfile host="app.diagrams.net" modified="2023-02-27T18:39:18.426Z" agent="5.0 (Windows NT 10.0; Win64; x64) AppleWebKit/537.36 (KHTML, like Gecko) Chrome/110.0.0.0 Safari/537.36" etag="QX-dCwRzl999HLr4Y0ZF" version="20.8.23" type="github">
  <diagram name="Page-1" id="TzPGHTmwQ5JnE4GI-TKI">
    <mxGraphModel dx="2206" dy="2263" grid="1" gridSize="10" guides="1" tooltips="1" connect="1" arrows="1" fold="1" page="1" pageScale="1" pageWidth="850" pageHeight="1100" math="0" shadow="0">
      <root>
        <mxCell id="0" />
        <mxCell id="1" parent="0" />
        <mxCell id="_etxpTSGn4-p2Qyfg-2n-1" value="" style="group" vertex="1" connectable="0" parent="1">
          <mxGeometry x="110" y="60" width="200" height="220" as="geometry" />
        </mxCell>
        <mxCell id="_etxpTSGn4-p2Qyfg-2n-2" value="" style="group" vertex="1" connectable="0" parent="_etxpTSGn4-p2Qyfg-2n-1">
          <mxGeometry y="-30" width="200" height="220" as="geometry" />
        </mxCell>
        <mxCell id="_etxpTSGn4-p2Qyfg-2n-3" value="" style="whiteSpace=wrap;html=1;align=center;fillColor=#FFFFFF;" vertex="1" parent="_etxpTSGn4-p2Qyfg-2n-2">
          <mxGeometry width="200" height="220" as="geometry" />
        </mxCell>
        <mxCell id="_etxpTSGn4-p2Qyfg-2n-4" value="Id&lt;br&gt;Code&amp;nbsp;&lt;br&gt;Title&lt;br&gt;Description&lt;br&gt;FinalScore&lt;br&gt;OwnerUserId&lt;br&gt;KnowledgeFieldId&amp;nbsp;&lt;br&gt;CreateDate&lt;br&gt;LastUpdateDate&lt;br&gt;IsDeleted&lt;br&gt;FormId" style="text;whiteSpace=wrap;html=1;" vertex="1" parent="_etxpTSGn4-p2Qyfg-2n-2">
          <mxGeometry x="10" y="40" width="130" height="180" as="geometry" />
        </mxCell>
        <mxCell id="_etxpTSGn4-p2Qyfg-2n-5" value="Knowledge" style="rounded=0;whiteSpace=wrap;html=1;fillColor=#FFFFFF;" vertex="1" parent="_etxpTSGn4-p2Qyfg-2n-2">
          <mxGeometry width="200" height="20" as="geometry" />
        </mxCell>
        <mxCell id="_etxpTSGn4-p2Qyfg-2n-6" value="" style="group" vertex="1" connectable="0" parent="1">
          <mxGeometry x="400" y="110" width="200" height="160" as="geometry" />
        </mxCell>
        <mxCell id="_etxpTSGn4-p2Qyfg-2n-7" value="" style="whiteSpace=wrap;html=1;align=center;fillColor=#FFFFFF;" vertex="1" parent="_etxpTSGn4-p2Qyfg-2n-6">
          <mxGeometry width="200" height="150" as="geometry" />
        </mxCell>
        <mxCell id="_etxpTSGn4-p2Qyfg-2n-8" value="&lt;div&gt;Id	&lt;/div&gt;&lt;div&gt;SortingNumber&lt;/div&gt;&lt;div&gt;Name&lt;span style=&quot;&quot;&gt;	&lt;/span&gt;&lt;/div&gt;&lt;div&gt;Description&lt;span style=&quot;&quot;&gt;	&lt;/span&gt;&lt;/div&gt;&lt;div&gt;FormTypeId&lt;span style=&quot;&quot;&gt;	&lt;/span&gt;&lt;/div&gt;&lt;div&gt;CreateDate&lt;span style=&quot;&quot;&gt;	&lt;/span&gt;&lt;span style=&quot;&quot;&gt;&amp;nbsp;&lt;/span&gt;&lt;/div&gt;&lt;div&gt;LastUpdateDate&lt;/div&gt;&lt;div&gt;IsDeleted&lt;span style=&quot;&quot;&gt;	&lt;/span&gt;&lt;/div&gt;" style="text;whiteSpace=wrap;html=1;" vertex="1" parent="_etxpTSGn4-p2Qyfg-2n-6">
          <mxGeometry x="20" y="20.645161290322584" width="180" height="92.90322580645162" as="geometry" />
        </mxCell>
        <mxCell id="_etxpTSGn4-p2Qyfg-2n-9" value="Form" style="rounded=0;whiteSpace=wrap;html=1;fillColor=#FFFFFF;" vertex="1" parent="_etxpTSGn4-p2Qyfg-2n-6">
          <mxGeometry width="200" height="15.483870967741938" as="geometry" />
        </mxCell>
        <mxCell id="_etxpTSGn4-p2Qyfg-2n-10" value="" style="group" vertex="1" connectable="0" parent="1">
          <mxGeometry x="700" y="300" width="150" height="160" as="geometry" />
        </mxCell>
        <mxCell id="_etxpTSGn4-p2Qyfg-2n-11" value="" style="whiteSpace=wrap;html=1;align=center;fillColor=#FFFFFF;" vertex="1" parent="_etxpTSGn4-p2Qyfg-2n-10">
          <mxGeometry x="-10" y="-60" width="150" height="130" as="geometry" />
        </mxCell>
        <mxCell id="_etxpTSGn4-p2Qyfg-2n-12" value="&lt;div&gt;Id&lt;/div&gt;&lt;div&gt;SortingNumber&lt;/div&gt;&lt;div&gt;Title&lt;span style=&quot;&quot;&gt;	&lt;/span&gt;&lt;/div&gt;&lt;div&gt;Description&lt;span style=&quot;&quot;&gt;	&lt;/span&gt;&lt;span style=&quot;&quot;&gt;&amp;nbsp;&lt;/span&gt;&lt;/div&gt;&lt;div&gt;LongTextValue&lt;/div&gt;&lt;div&gt;FormId&lt;/div&gt;&lt;div&gt;KnowledgeId&amp;nbsp;&lt;br&gt;&lt;/div&gt;" style="text;whiteSpace=wrap;html=1;" vertex="1" parent="_etxpTSGn4-p2Qyfg-2n-10">
          <mxGeometry x="-2.5" y="-44.51483870967742" width="135" height="92.90322580645162" as="geometry" />
        </mxCell>
        <mxCell id="_etxpTSGn4-p2Qyfg-2n-13" value="LongText" style="rounded=0;whiteSpace=wrap;html=1;fillColor=#FFFFFF;" vertex="1" parent="_etxpTSGn4-p2Qyfg-2n-10">
          <mxGeometry x="-10" y="-60" width="150" height="15.483870967741938" as="geometry" />
        </mxCell>
        <mxCell id="_etxpTSGn4-p2Qyfg-2n-14" value="" style="group" vertex="1" connectable="0" parent="1">
          <mxGeometry x="690" y="390" width="150" height="135.48000000000002" as="geometry" />
        </mxCell>
        <mxCell id="_etxpTSGn4-p2Qyfg-2n-15" value="" style="whiteSpace=wrap;html=1;align=center;fillColor=#FFFFFF;" vertex="1" parent="_etxpTSGn4-p2Qyfg-2n-14">
          <mxGeometry y="15.47999999999999" width="150" height="120" as="geometry" />
        </mxCell>
        <mxCell id="_etxpTSGn4-p2Qyfg-2n-16" value="&lt;div&gt;Id	&lt;/div&gt;&lt;div&gt;SortingNumber&lt;/div&gt;&lt;div&gt;Title&lt;span style=&quot;&quot;&gt;	&lt;/span&gt;&lt;/div&gt;&lt;div&gt;Description&lt;span style=&quot;&quot;&gt;&amp;nbsp;&lt;/span&gt;&lt;/div&gt;&lt;div&gt;ShortTestValue&lt;span style=&quot;&quot;&gt;	&lt;/span&gt;&lt;/div&gt;&lt;div&gt;FormId&lt;span style=&quot;&quot;&gt;	&lt;/span&gt;&lt;/div&gt;&lt;div&gt;KnowledgeId&amp;nbsp;&lt;br&gt;&lt;/div&gt;" style="text;whiteSpace=wrap;html=1;" vertex="1" parent="_etxpTSGn4-p2Qyfg-2n-14">
          <mxGeometry x="10" y="20" width="110" height="110" as="geometry" />
        </mxCell>
        <mxCell id="_etxpTSGn4-p2Qyfg-2n-17" value="ShortText" style="rounded=0;whiteSpace=wrap;html=1;fillColor=#FFFFFF;" vertex="1" parent="_etxpTSGn4-p2Qyfg-2n-14">
          <mxGeometry width="150" height="15.48" as="geometry" />
        </mxCell>
        <mxCell id="_etxpTSGn4-p2Qyfg-2n-18" value="" style="group" vertex="1" connectable="0" parent="1">
          <mxGeometry x="950" y="100" width="150" height="100" as="geometry" />
        </mxCell>
        <mxCell id="_etxpTSGn4-p2Qyfg-2n-19" value="ComboDetails" style="rounded=0;whiteSpace=wrap;html=1;fillColor=#FFFFFF;" vertex="1" parent="_etxpTSGn4-p2Qyfg-2n-18">
          <mxGeometry y="-10" width="150" height="21.43" as="geometry" />
        </mxCell>
        <mxCell id="_etxpTSGn4-p2Qyfg-2n-20" value="" style="group" vertex="1" connectable="0" parent="_etxpTSGn4-p2Qyfg-2n-18">
          <mxGeometry y="11.43" width="150" height="68.57" as="geometry" />
        </mxCell>
        <mxCell id="_etxpTSGn4-p2Qyfg-2n-21" value="" style="whiteSpace=wrap;html=1;align=center;fillColor=#FFFFFF;" vertex="1" parent="_etxpTSGn4-p2Qyfg-2n-20">
          <mxGeometry width="150" height="68.57" as="geometry" />
        </mxCell>
        <mxCell id="_etxpTSGn4-p2Qyfg-2n-22" value="&lt;div&gt;Id	&lt;/div&gt;&lt;div&gt;ValueId&lt;span style=&quot;&quot;&gt;	&lt;/span&gt;&lt;/div&gt;&lt;div&gt;ValueText&lt;span style=&quot;&quot;&gt;	&lt;/span&gt;&lt;/div&gt;&lt;div&gt;ComboId&lt;span style=&quot;&quot;&gt;	&lt;/span&gt;&lt;span style=&quot;&quot;&gt;&amp;nbsp;&lt;/span&gt;&lt;/div&gt;" style="text;whiteSpace=wrap;html=1;" vertex="1" parent="_etxpTSGn4-p2Qyfg-2n-20">
          <mxGeometry x="10" y="3.3199308333333346" width="110" height="53.084608333333335" as="geometry" />
        </mxCell>
        <mxCell id="_etxpTSGn4-p2Qyfg-2n-23" value="" style="whiteSpace=wrap;html=1;align=center;fillColor=#FFFFFF;" vertex="1" parent="1">
          <mxGeometry x="400" y="290" width="150" height="130" as="geometry" />
        </mxCell>
        <mxCell id="_etxpTSGn4-p2Qyfg-2n-24" value="&lt;div&gt;Id&lt;/div&gt;&lt;div&gt;SortingNumber&lt;/div&gt;&lt;div&gt;Title&lt;/div&gt;&lt;div&gt;Description&lt;/div&gt;&lt;div&gt;RadioButtonYesNoValue&lt;/div&gt;&lt;div&gt;FormId&lt;/div&gt;&lt;div&gt;KnowledgeId&amp;nbsp;&lt;br&gt;&lt;/div&gt;" style="text;whiteSpace=wrap;html=1;" vertex="1" parent="1">
          <mxGeometry x="407.5" y="305.4851612903226" width="135" height="92.90322580645162" as="geometry" />
        </mxCell>
        <mxCell id="_etxpTSGn4-p2Qyfg-2n-25" value="RadioButtonYesNos" style="rounded=0;whiteSpace=wrap;html=1;fillColor=#FFFFFF;" vertex="1" parent="1">
          <mxGeometry x="400" y="290" width="150" height="15.483870967741938" as="geometry" />
        </mxCell>
        <mxCell id="_etxpTSGn4-p2Qyfg-2n-26" value="" style="edgeStyle=entityRelationEdgeStyle;fontSize=12;html=1;endArrow=ERoneToMany;rounded=0;exitX=-0.016;exitY=0.211;exitDx=0;exitDy=0;exitPerimeter=0;" edge="1" parent="1" source="_etxpTSGn4-p2Qyfg-2n-7" target="_etxpTSGn4-p2Qyfg-2n-3">
          <mxGeometry width="100" height="100" relative="1" as="geometry">
            <mxPoint x="330" y="204.64" as="sourcePoint" />
            <mxPoint x="430" y="104.63999999999999" as="targetPoint" />
          </mxGeometry>
        </mxCell>
        <mxCell id="_etxpTSGn4-p2Qyfg-2n-27" value="" style="group" vertex="1" connectable="0" parent="1">
          <mxGeometry x="690" y="90.0028988017242" width="160" height="146.07409786790504" as="geometry" />
        </mxCell>
        <mxCell id="_etxpTSGn4-p2Qyfg-2n-28" value="" style="group" vertex="1" connectable="0" parent="_etxpTSGn4-p2Qyfg-2n-27">
          <mxGeometry x="10" y="12.167101198275802" width="150" height="133.90699666962925" as="geometry" />
        </mxCell>
        <mxCell id="_etxpTSGn4-p2Qyfg-2n-29" value="" style="group" vertex="1" connectable="0" parent="_etxpTSGn4-p2Qyfg-2n-28">
          <mxGeometry x="-10" y="13.906996669629244" width="150" height="120" as="geometry" />
        </mxCell>
        <mxCell id="_etxpTSGn4-p2Qyfg-2n-30" value="" style="whiteSpace=wrap;html=1;align=center;fillColor=#FFFFFF;" vertex="1" parent="_etxpTSGn4-p2Qyfg-2n-29">
          <mxGeometry width="150" height="120" as="geometry" />
        </mxCell>
        <mxCell id="_etxpTSGn4-p2Qyfg-2n-31" value="&lt;div&gt;Id	&lt;/div&gt;&lt;div&gt;SortingNumber&lt;span style=&quot;&quot;&gt;	&lt;/span&gt;&lt;/div&gt;&lt;div&gt;Title&lt;span style=&quot;&quot;&gt;	&lt;/span&gt;&lt;/div&gt;&lt;div&gt;Description&lt;span style=&quot;&quot;&gt;	&lt;/span&gt;&lt;/div&gt;&lt;div&gt;ComboDetailId&lt;span style=&quot;&quot;&gt;	&lt;/span&gt;&lt;/div&gt;&lt;div&gt;FormId&lt;span style=&quot;&quot;&gt;	&lt;/span&gt;&lt;/div&gt;&lt;div&gt;KnowledgeId&amp;nbsp;&lt;br style=&quot;border-color: var(--border-color);&quot;&gt;&lt;/div&gt;" style="text;whiteSpace=wrap;html=1;" vertex="1" parent="_etxpTSGn4-p2Qyfg-2n-29">
          <mxGeometry x="10" y="4.04" width="130" height="95.96" as="geometry" />
        </mxCell>
        <mxCell id="_etxpTSGn4-p2Qyfg-2n-32" value="ComboDetails" style="rounded=0;whiteSpace=wrap;html=1;fillColor=#FFFFFF;" vertex="1" parent="_etxpTSGn4-p2Qyfg-2n-27">
          <mxGeometry width="150" height="26.074097867905046" as="geometry" />
        </mxCell>
        <mxCell id="_etxpTSGn4-p2Qyfg-2n-33" value="" style="group" vertex="1" connectable="0" parent="1">
          <mxGeometry x="530" y="-56.06710119827579" width="160" height="146.07409786790504" as="geometry" />
        </mxCell>
        <mxCell id="_etxpTSGn4-p2Qyfg-2n-34" value="" style="group" vertex="1" connectable="0" parent="_etxpTSGn4-p2Qyfg-2n-33">
          <mxGeometry x="10" y="12.167101198275802" width="150" height="133.90699666962925" as="geometry" />
        </mxCell>
        <mxCell id="_etxpTSGn4-p2Qyfg-2n-35" value="" style="group" vertex="1" connectable="0" parent="_etxpTSGn4-p2Qyfg-2n-34">
          <mxGeometry x="-10" y="13.906996669629244" width="150" height="120" as="geometry" />
        </mxCell>
        <mxCell id="_etxpTSGn4-p2Qyfg-2n-36" value="" style="whiteSpace=wrap;html=1;align=center;fillColor=#FFFFFF;" vertex="1" parent="_etxpTSGn4-p2Qyfg-2n-35">
          <mxGeometry width="150" height="120" as="geometry" />
        </mxCell>
        <mxCell id="_etxpTSGn4-p2Qyfg-2n-37" value="&lt;div&gt;&lt;div&gt;Id	&lt;/div&gt;&lt;div&gt;SortingNumber&lt;span style=&quot;&quot;&gt;	&lt;/span&gt;&lt;/div&gt;&lt;div&gt;Title&lt;/div&gt;&lt;div&gt;Description&lt;span style=&quot;&quot;&gt;	&lt;/span&gt;&lt;/div&gt;&lt;div&gt;DateTextValue&lt;span style=&quot;&quot;&gt;	&lt;/span&gt;&lt;/div&gt;&lt;div&gt;FormId&lt;span style=&quot;&quot;&gt;	&lt;/span&gt;&lt;/div&gt;&lt;/div&gt;&lt;div&gt;KnowledgeId&amp;nbsp;&lt;br&gt;&lt;/div&gt;" style="text;whiteSpace=wrap;html=1;" vertex="1" parent="_etxpTSGn4-p2Qyfg-2n-35">
          <mxGeometry x="10" y="4.04" width="130" height="95.96" as="geometry" />
        </mxCell>
        <mxCell id="_etxpTSGn4-p2Qyfg-2n-38" value="datetext" style="rounded=0;whiteSpace=wrap;html=1;fillColor=#FFFFFF;" vertex="1" parent="_etxpTSGn4-p2Qyfg-2n-33">
          <mxGeometry width="150" height="26.074097867905046" as="geometry" />
        </mxCell>
        <mxCell id="_etxpTSGn4-p2Qyfg-2n-39" value="" style="edgeStyle=entityRelationEdgeStyle;fontSize=12;html=1;endArrow=ERzeroToMany;endFill=1;rounded=0;entryX=0.998;entryY=0.21;entryDx=0;entryDy=0;entryPerimeter=0;exitX=0;exitY=0.75;exitDx=0;exitDy=0;" edge="1" parent="1" source="_etxpTSGn4-p2Qyfg-2n-36" target="_etxpTSGn4-p2Qyfg-2n-3">
          <mxGeometry width="100" height="100" relative="1" as="geometry">
            <mxPoint x="400" y="90" as="sourcePoint" />
            <mxPoint x="500" y="-10" as="targetPoint" />
          </mxGeometry>
        </mxCell>
        <mxCell id="_etxpTSGn4-p2Qyfg-2n-40" value="" style="edgeStyle=entityRelationEdgeStyle;fontSize=12;html=1;endArrow=ERzeroToMany;endFill=1;rounded=0;entryX=0;entryY=0.5;entryDx=0;entryDy=0;exitX=0.931;exitY=0.998;exitDx=0;exitDy=0;exitPerimeter=0;" edge="1" parent="1" source="_etxpTSGn4-p2Qyfg-2n-3" target="_etxpTSGn4-p2Qyfg-2n-23">
          <mxGeometry width="100" height="100" relative="1" as="geometry">
            <mxPoint x="330" y="200" as="sourcePoint" />
            <mxPoint x="380" y="320" as="targetPoint" />
          </mxGeometry>
        </mxCell>
        <mxCell id="_etxpTSGn4-p2Qyfg-2n-41" value="" style="group" vertex="1" connectable="0" parent="1">
          <mxGeometry x="290" y="-610" width="170.01" height="465.358704426155" as="geometry" />
        </mxCell>
        <mxCell id="_etxpTSGn4-p2Qyfg-2n-42" value="" style="group" vertex="1" connectable="0" parent="_etxpTSGn4-p2Qyfg-2n-41">
          <mxGeometry x="10.63" y="11.25" width="159.38" height="454.108704426155" as="geometry" />
        </mxCell>
        <mxCell id="_etxpTSGn4-p2Qyfg-2n-43" value="" style="group" vertex="1" connectable="0" parent="_etxpTSGn4-p2Qyfg-2n-42">
          <mxGeometry x="-10.625333333333334" y="14.108704426154958" width="159.38" height="440" as="geometry" />
        </mxCell>
        <mxCell id="_etxpTSGn4-p2Qyfg-2n-44" value="" style="whiteSpace=wrap;html=1;align=center;fillColor=#FFFFFF;" vertex="1" parent="_etxpTSGn4-p2Qyfg-2n-43">
          <mxGeometry width="159.38" height="330" as="geometry" />
        </mxCell>
        <mxCell id="_etxpTSGn4-p2Qyfg-2n-45" value="&lt;div&gt;&lt;div&gt;&lt;div&gt;Id&lt;/div&gt;&lt;div&gt;FirstName&lt;/div&gt;&lt;div&gt;LastName&lt;/div&gt;&lt;div&gt;UserName&lt;/div&gt;&lt;div&gt;Password&lt;/div&gt;&lt;div&gt;Phone&lt;/div&gt;&lt;div&gt;ConfirmedPhone&lt;/div&gt;&lt;div&gt;Email&lt;/div&gt;&lt;div&gt;ConfirmedEmail&lt;/div&gt;&lt;div&gt;Address&lt;/div&gt;&lt;div&gt;CodeMeli&lt;/div&gt;&lt;div&gt;PersonnelNumber&lt;/div&gt;&lt;div&gt;About&lt;/div&gt;&lt;div&gt;PositionName&lt;/div&gt;&lt;div&gt;PositionId&lt;/div&gt;&lt;div&gt;ImagePath&lt;/div&gt;&lt;div&gt;GradeId&lt;/div&gt;&lt;div&gt;ChartId&lt;/div&gt;&lt;div&gt;CreateDate&lt;/div&gt;&lt;div&gt;LastUpdateDate&lt;/div&gt;&lt;div&gt;IsDeleted&lt;/div&gt;&lt;/div&gt;&lt;/div&gt;" style="text;whiteSpace=wrap;html=1;" vertex="1" parent="_etxpTSGn4-p2Qyfg-2n-43">
          <mxGeometry x="10.63" y="4.1" width="138.13" height="315.9" as="geometry" />
        </mxCell>
        <mxCell id="_etxpTSGn4-p2Qyfg-2n-46" value="user" style="rounded=0;whiteSpace=wrap;html=1;fillColor=#FFFFFF;" vertex="1" parent="_etxpTSGn4-p2Qyfg-2n-41">
          <mxGeometry width="159.375" height="24.10960938461905" as="geometry" />
        </mxCell>
        <mxCell id="_etxpTSGn4-p2Qyfg-2n-47" value="" style="edgeStyle=entityRelationEdgeStyle;fontSize=12;html=1;endArrow=ERoneToMany;rounded=0;exitX=0.396;exitY=1.003;exitDx=0;exitDy=0;exitPerimeter=0;" edge="1" parent="1" source="_etxpTSGn4-p2Qyfg-2n-44">
          <mxGeometry width="100" height="100" relative="1" as="geometry">
            <mxPoint x="240" y="-410" as="sourcePoint" />
            <mxPoint x="100" y="90.00000000000045" as="targetPoint" />
          </mxGeometry>
        </mxCell>
        <mxCell id="_etxpTSGn4-p2Qyfg-2n-48" value="" style="group" vertex="1" connectable="0" parent="1">
          <mxGeometry x="520" y="-517" width="190" height="180" as="geometry" />
        </mxCell>
        <mxCell id="_etxpTSGn4-p2Qyfg-2n-49" value="" style="whiteSpace=wrap;html=1;align=center;fillColor=#FFFFFF;" vertex="1" parent="_etxpTSGn4-p2Qyfg-2n-48">
          <mxGeometry y="15.48" width="190" height="164.52" as="geometry" />
        </mxCell>
        <mxCell id="_etxpTSGn4-p2Qyfg-2n-50" value="&lt;div&gt;&lt;div&gt;Id&lt;/div&gt;&lt;div&gt;SortingNumber&lt;/div&gt;&lt;div&gt;EnglishTitle&lt;/div&gt;&lt;div&gt;PersianTitle&lt;/div&gt;&lt;div&gt;Description&lt;/div&gt;&lt;div&gt;OrganizationId&lt;/div&gt;&lt;div&gt;ParentId&lt;/div&gt;&lt;div&gt;CreateDate&lt;/div&gt;&lt;div&gt;LastUpdateDate&lt;/div&gt;&lt;div&gt;IsDeleted&lt;/div&gt;&lt;/div&gt;" style="text;whiteSpace=wrap;html=1;" vertex="1" parent="_etxpTSGn4-p2Qyfg-2n-48">
          <mxGeometry x="12.666666666666666" y="20" width="139.33333333333331" height="110" as="geometry" />
        </mxCell>
        <mxCell id="_etxpTSGn4-p2Qyfg-2n-51" value="Chart" style="rounded=0;whiteSpace=wrap;html=1;fillColor=#FFFFFF;" vertex="1" parent="_etxpTSGn4-p2Qyfg-2n-48">
          <mxGeometry width="190" height="15.48" as="geometry" />
        </mxCell>
        <mxCell id="_etxpTSGn4-p2Qyfg-2n-52" value="" style="edgeStyle=entityRelationEdgeStyle;fontSize=12;html=1;endArrow=ERoneToMany;rounded=0;" edge="1" parent="_etxpTSGn4-p2Qyfg-2n-48" target="_etxpTSGn4-p2Qyfg-2n-49">
          <mxGeometry width="100" height="100" relative="1" as="geometry">
            <mxPoint x="160" y="220" as="sourcePoint" />
            <mxPoint x="260" y="120" as="targetPoint" />
          </mxGeometry>
        </mxCell>
        <mxCell id="_etxpTSGn4-p2Qyfg-2n-53" value="" style="group" vertex="1" connectable="0" parent="1">
          <mxGeometry x="520" y="-297" width="190" height="170" as="geometry" />
        </mxCell>
        <mxCell id="_etxpTSGn4-p2Qyfg-2n-54" value="" style="whiteSpace=wrap;html=1;align=center;fillColor=#FFFFFF;" vertex="1" parent="_etxpTSGn4-p2Qyfg-2n-53">
          <mxGeometry y="14.62" width="190" height="155.38" as="geometry" />
        </mxCell>
        <mxCell id="_etxpTSGn4-p2Qyfg-2n-55" value="&lt;div&gt;Id&lt;/div&gt;&lt;div&gt;SortingNumber&lt;/div&gt;&lt;div&gt;EnglishTitle&lt;/div&gt;&lt;div&gt;PersianTitle&lt;/div&gt;&lt;div&gt;Description&lt;/div&gt;&lt;div&gt;ParentId&lt;/div&gt;&lt;div&gt;CreateDate&lt;/div&gt;&lt;div&gt;LastUpdateDate&lt;/div&gt;&lt;div&gt;IsDeleted&lt;/div&gt;" style="text;whiteSpace=wrap;html=1;" vertex="1" parent="_etxpTSGn4-p2Qyfg-2n-53">
          <mxGeometry x="12.666666666666666" y="18.88888888888889" width="139.33333333333331" height="103.88888888888889" as="geometry" />
        </mxCell>
        <mxCell id="_etxpTSGn4-p2Qyfg-2n-56" value="Organization" style="rounded=0;whiteSpace=wrap;html=1;fillColor=#FFFFFF;" vertex="1" parent="_etxpTSGn4-p2Qyfg-2n-53">
          <mxGeometry width="190" height="14.62" as="geometry" />
        </mxCell>
        <mxCell id="_etxpTSGn4-p2Qyfg-2n-57" value="" style="edgeStyle=entityRelationEdgeStyle;fontSize=12;html=1;endArrow=ERmany;startArrow=ERmany;rounded=0;" edge="1" parent="1">
          <mxGeometry width="100" height="100" relative="1" as="geometry">
            <mxPoint x="710" y="-187" as="sourcePoint" />
            <mxPoint x="780" y="-117" as="targetPoint" />
          </mxGeometry>
        </mxCell>
        <mxCell id="_etxpTSGn4-p2Qyfg-2n-58" value="" style="edgeStyle=entityRelationEdgeStyle;fontSize=12;html=1;endArrow=ERoneToMany;rounded=0;exitX=0.008;exitY=0.197;exitDx=0;exitDy=0;exitPerimeter=0;" edge="1" parent="1" source="_etxpTSGn4-p2Qyfg-2n-49" target="_etxpTSGn4-p2Qyfg-2n-44">
          <mxGeometry width="100" height="100" relative="1" as="geometry">
            <mxPoint x="470" y="-590" as="sourcePoint" />
            <mxPoint x="620" y="-690" as="targetPoint" />
          </mxGeometry>
        </mxCell>
        <mxCell id="_etxpTSGn4-p2Qyfg-2n-59" value="" style="group" vertex="1" connectable="0" parent="1">
          <mxGeometry x="780" y="-549" width="160" height="200" as="geometry" />
        </mxCell>
        <mxCell id="_etxpTSGn4-p2Qyfg-2n-60" value="" style="group" vertex="1" connectable="0" parent="_etxpTSGn4-p2Qyfg-2n-59">
          <mxGeometry x="10.62" y="16.65880724353817" width="150" height="183.34119275646185" as="geometry" />
        </mxCell>
        <mxCell id="_etxpTSGn4-p2Qyfg-2n-61" value="" style="group" vertex="1" connectable="0" parent="_etxpTSGn4-p2Qyfg-2n-60">
          <mxGeometry x="-10" y="19.041016679364134" width="150" height="164.3001760770977" as="geometry" />
        </mxCell>
        <mxCell id="_etxpTSGn4-p2Qyfg-2n-62" value="" style="whiteSpace=wrap;html=1;align=center;fillColor=#FFFFFF;" vertex="1" parent="_etxpTSGn4-p2Qyfg-2n-61">
          <mxGeometry width="150" height="164.3001760770977" as="geometry" />
        </mxCell>
        <mxCell id="_etxpTSGn4-p2Qyfg-2n-63" value="&lt;div&gt;&lt;div&gt;&lt;div style=&quot;border-color: var(--border-color);&quot;&gt;Id&lt;/div&gt;&lt;div style=&quot;border-color: var(--border-color);&quot;&gt;SortingNumber&lt;/div&gt;&lt;div style=&quot;border-color: var(--border-color);&quot;&gt;EnglishTitle&lt;/div&gt;&lt;div style=&quot;border-color: var(--border-color);&quot;&gt;PersianTitle&lt;/div&gt;&lt;div style=&quot;border-color: var(--border-color);&quot;&gt;Description&lt;/div&gt;&lt;div style=&quot;border-color: var(--border-color);&quot;&gt;OrganizationId&lt;/div&gt;&lt;div style=&quot;border-color: var(--border-color);&quot;&gt;ParentId&lt;/div&gt;&lt;div style=&quot;border-color: var(--border-color);&quot;&gt;CreateDate&lt;/div&gt;&lt;div style=&quot;border-color: var(--border-color);&quot;&gt;LastUpdateDate&lt;/div&gt;&lt;div style=&quot;border-color: var(--border-color);&quot;&gt;IsDeleted&lt;/div&gt;&lt;/div&gt;&lt;/div&gt;" style="text;whiteSpace=wrap;html=1;" vertex="1" parent="_etxpTSGn4-p2Qyfg-2n-61">
          <mxGeometry x="10" y="0.0014392612622913248" width="130" height="131.38537413631911" as="geometry" />
        </mxCell>
        <mxCell id="_etxpTSGn4-p2Qyfg-2n-64" value="POstPosition" style="rounded=0;whiteSpace=wrap;html=1;fillColor=#FFFFFF;" vertex="1" parent="_etxpTSGn4-p2Qyfg-2n-59">
          <mxGeometry width="150" height="35.699823922902304" as="geometry" />
        </mxCell>
        <mxCell id="_etxpTSGn4-p2Qyfg-2n-65" value="" style="group" vertex="1" connectable="0" parent="1">
          <mxGeometry x="780" y="-297" width="159.38" height="252.90000000000006" as="geometry" />
        </mxCell>
        <mxCell id="_etxpTSGn4-p2Qyfg-2n-66" value="" style="whiteSpace=wrap;html=1;align=center;fillColor=#FFFFFF;" vertex="1" parent="_etxpTSGn4-p2Qyfg-2n-65">
          <mxGeometry y="25.360000000000014" width="159.38" height="210" as="geometry" />
        </mxCell>
        <mxCell id="_etxpTSGn4-p2Qyfg-2n-67" value="&lt;div&gt;Id&lt;/div&gt;&lt;div&gt;Title&lt;/div&gt;&lt;div&gt;Description&lt;/div&gt;&lt;div&gt;ImagePath&lt;/div&gt;&lt;div&gt;Coulmn1&lt;/div&gt;&lt;div&gt;Coulmn2&lt;/div&gt;&lt;div&gt;Coulmn3&lt;/div&gt;&lt;div&gt;Coulmn4&lt;/div&gt;&lt;div&gt;Coulmn5&lt;/div&gt;&lt;div&gt;OrganizationId&lt;/div&gt;&lt;div&gt;CreateDate&lt;/div&gt;&lt;div&gt;LastUpdateDate&lt;/div&gt;&lt;div&gt;IsDeleted&lt;/div&gt;" style="text;whiteSpace=wrap;html=1;" vertex="1" parent="_etxpTSGn4-p2Qyfg-2n-65">
          <mxGeometry x="10.620000000000005" y="37.00000000000006" width="138.13" height="215.9" as="geometry" />
        </mxCell>
        <mxCell id="_etxpTSGn4-p2Qyfg-2n-68" value="HomePageSetting" style="rounded=0;whiteSpace=wrap;html=1;fillColor=#FFFFFF;" vertex="1" parent="_etxpTSGn4-p2Qyfg-2n-65">
          <mxGeometry width="159.375" height="24.10960938461905" as="geometry" />
        </mxCell>
        <mxCell id="_etxpTSGn4-p2Qyfg-2n-69" value="" style="edgeStyle=entityRelationEdgeStyle;fontSize=12;html=1;endArrow=ERoneToMany;rounded=0;entryX=1.023;entryY=0.081;entryDx=0;entryDy=0;entryPerimeter=0;exitX=-0.005;exitY=0.177;exitDx=0;exitDy=0;exitPerimeter=0;" edge="1" parent="1" source="_etxpTSGn4-p2Qyfg-2n-63" target="_etxpTSGn4-p2Qyfg-2n-44">
          <mxGeometry width="100" height="100" relative="1" as="geometry">
            <mxPoint x="680" y="-560" as="sourcePoint" />
            <mxPoint x="780" y="-660" as="targetPoint" />
          </mxGeometry>
        </mxCell>
        <mxCell id="_etxpTSGn4-p2Qyfg-2n-70" value="" style="edgeStyle=entityRelationEdgeStyle;fontSize=12;html=1;endArrow=ERoneToMany;rounded=0;entryX=0;entryY=0.429;entryDx=0;entryDy=0;entryPerimeter=0;" edge="1" parent="1" target="_etxpTSGn4-p2Qyfg-2n-11">
          <mxGeometry width="100" height="100" relative="1" as="geometry">
            <mxPoint x="307.5" y="240" as="sourcePoint" />
            <mxPoint x="407.5" y="140" as="targetPoint" />
          </mxGeometry>
        </mxCell>
        <mxCell id="_etxpTSGn4-p2Qyfg-2n-71" value="" style="edgeStyle=entityRelationEdgeStyle;fontSize=12;html=1;endArrow=ERoneToMany;rounded=0;entryX=-0.007;entryY=0.332;entryDx=0;entryDy=0;entryPerimeter=0;exitX=0.968;exitY=1.022;exitDx=0;exitDy=0;exitPerimeter=0;" edge="1" parent="1" source="_etxpTSGn4-p2Qyfg-2n-3" target="_etxpTSGn4-p2Qyfg-2n-15">
          <mxGeometry width="100" height="100" relative="1" as="geometry">
            <mxPoint x="307.5" y="180" as="sourcePoint" />
            <mxPoint x="130" y="450" as="targetPoint" />
          </mxGeometry>
        </mxCell>
        <mxCell id="_etxpTSGn4-p2Qyfg-2n-72" value="" style="edgeStyle=entityRelationEdgeStyle;fontSize=12;html=1;endArrow=ERoneToMany;rounded=0;exitX=1;exitY=0.75;exitDx=0;exitDy=0;entryX=0;entryY=0.5;entryDx=0;entryDy=0;" edge="1" parent="1" source="_etxpTSGn4-p2Qyfg-2n-3" target="_etxpTSGn4-p2Qyfg-2n-30">
          <mxGeometry width="100" height="100" relative="1" as="geometry">
            <mxPoint x="160" y="460" as="sourcePoint" />
            <mxPoint x="260" y="360" as="targetPoint" />
          </mxGeometry>
        </mxCell>
        <mxCell id="_etxpTSGn4-p2Qyfg-2n-73" value="" style="whiteSpace=wrap;html=1;align=center;fillColor=#FFFFFF;" vertex="1" parent="1">
          <mxGeometry x="120" y="325.48" width="190" height="164.52" as="geometry" />
        </mxCell>
        <mxCell id="_etxpTSGn4-p2Qyfg-2n-74" value="&lt;div&gt;&lt;div&gt;Id&lt;/div&gt;&lt;div&gt;Name&lt;/div&gt;&lt;div&gt;Description&lt;/div&gt;&lt;div&gt;ConfidentialityLevelId&lt;/div&gt;&lt;div&gt;SortingNumber&lt;/div&gt;&lt;div&gt;ParentId&lt;/div&gt;&lt;div&gt;AppraisementConfigurationId&lt;/div&gt;&lt;div&gt;CreateDate&lt;/div&gt;&lt;div&gt;LastUpdateDate&lt;/div&gt;&lt;div&gt;IsDeleted&lt;/div&gt;&lt;/div&gt;" style="text;whiteSpace=wrap;html=1;" vertex="1" parent="1">
          <mxGeometry x="132.66666666666669" y="330" width="139.33333333333331" height="110" as="geometry" />
        </mxCell>
        <mxCell id="_etxpTSGn4-p2Qyfg-2n-75" value="KnowledgeField&lt;br&gt;" style="rounded=0;whiteSpace=wrap;html=1;fillColor=#FFFFFF;" vertex="1" parent="1">
          <mxGeometry x="120" y="310" width="190" height="15.48" as="geometry" />
        </mxCell>
        <mxCell id="_etxpTSGn4-p2Qyfg-2n-76" value="" style="edgeStyle=entityRelationEdgeStyle;fontSize=12;html=1;endArrow=ERoneToMany;rounded=0;exitX=1;exitY=1;exitDx=0;exitDy=0;" edge="1" parent="1" source="_etxpTSGn4-p2Qyfg-2n-4">
          <mxGeometry width="100" height="100" relative="1" as="geometry">
            <mxPoint x="20" y="450" as="sourcePoint" />
            <mxPoint x="120" y="350" as="targetPoint" />
          </mxGeometry>
        </mxCell>
        <mxCell id="_etxpTSGn4-p2Qyfg-2n-77" value="" style="edgeStyle=entityRelationEdgeStyle;fontSize=12;html=1;endArrow=ERmandOne;startArrow=ERmandOne;rounded=0;entryX=0;entryY=0.394;entryDx=0;entryDy=0;entryPerimeter=0;" edge="1" parent="1" target="_etxpTSGn4-p2Qyfg-2n-21">
          <mxGeometry width="100" height="100" relative="1" as="geometry">
            <mxPoint x="840" y="160" as="sourcePoint" />
            <mxPoint x="940" y="60" as="targetPoint" />
          </mxGeometry>
        </mxCell>
        <mxCell id="_etxpTSGn4-p2Qyfg-2n-78" value="" style="edgeStyle=entityRelationEdgeStyle;fontSize=12;html=1;endArrow=ERoneToMany;rounded=0;entryX=-0.007;entryY=0.673;entryDx=0;entryDy=0;entryPerimeter=0;" edge="1" parent="1" target="_etxpTSGn4-p2Qyfg-2n-30">
          <mxGeometry width="100" height="100" relative="1" as="geometry">
            <mxPoint x="600" y="220" as="sourcePoint" />
            <mxPoint x="700" y="120" as="targetPoint" />
          </mxGeometry>
        </mxCell>
        <mxCell id="_etxpTSGn4-p2Qyfg-2n-79" value="" style="edgeStyle=entityRelationEdgeStyle;fontSize=12;html=1;endArrow=ERoneToMany;rounded=0;" edge="1" parent="1">
          <mxGeometry width="100" height="100" relative="1" as="geometry">
            <mxPoint x="600" y="240" as="sourcePoint" />
            <mxPoint x="690" y="325" as="targetPoint" />
          </mxGeometry>
        </mxCell>
        <mxCell id="_etxpTSGn4-p2Qyfg-2n-80" value="" style="edgeStyle=entityRelationEdgeStyle;fontSize=12;html=1;endArrow=ERoneToMany;rounded=0;entryX=-0.014;entryY=0.182;entryDx=0;entryDy=0;entryPerimeter=0;" edge="1" parent="1" target="_etxpTSGn4-p2Qyfg-2n-15">
          <mxGeometry width="100" height="100" relative="1" as="geometry">
            <mxPoint x="590" y="260" as="sourcePoint" />
            <mxPoint x="690" y="160" as="targetPoint" />
          </mxGeometry>
        </mxCell>
        <mxCell id="_etxpTSGn4-p2Qyfg-2n-81" value="" style="edgeStyle=entityRelationEdgeStyle;fontSize=12;html=1;endArrow=ERoneToMany;rounded=0;entryX=1.007;entryY=0.336;entryDx=0;entryDy=0;entryPerimeter=0;" edge="1" parent="1" target="_etxpTSGn4-p2Qyfg-2n-23">
          <mxGeometry width="100" height="100" relative="1" as="geometry">
            <mxPoint x="580" y="260" as="sourcePoint" />
            <mxPoint x="680" y="160" as="targetPoint" />
          </mxGeometry>
        </mxCell>
        <mxCell id="_etxpTSGn4-p2Qyfg-2n-82" value="" style="edgeStyle=entityRelationEdgeStyle;fontSize=12;html=1;endArrow=ERoneToMany;rounded=0;entryX=0.75;entryY=1;entryDx=0;entryDy=0;" edge="1" parent="1" target="_etxpTSGn4-p2Qyfg-2n-36">
          <mxGeometry width="100" height="100" relative="1" as="geometry">
            <mxPoint x="600" y="150" as="sourcePoint" />
            <mxPoint x="700" y="50" as="targetPoint" />
          </mxGeometry>
        </mxCell>
      </root>
    </mxGraphModel>
  </diagram>
</mxfile>
